<?xml version="1.0" encoding="utf-8"?>
<!-- Generator: Adobe Illustrator 23.1.0, SVG Export Plug-In . SVG Version: 6.00 Build 0)  -->
<svg version="1.1" id="圖層_1" xmlns="http://www.w3.org/2000/svg" xmlns:xlink="http://www.w3.org/1999/xlink" x="0px" y="0px"
	 viewBox="0 0 30 30" style="enable-background:new 0 0 30 30;" xml:space="preserve">
<style type="text/css">
	.st0{fill:#474747;}
</style>
<path class="st0" d="M27.7,14.48C27.7,14.48,27.7,14.48,27.7,14.48l-5.35-5.33c-0.4-0.4-1.05-0.4-1.45,0c-0.4,0.4-0.4,1.05,0,1.45
	l3.59,3.58H2.8c-0.57,0-1.02,0.46-1.02,1.02c0,0.57,0.46,1.02,1.02,1.02h21.7l-3.59,3.58c-0.4,0.4-0.4,1.05,0,1.45
	c0.4,0.4,1.05,0.4,1.45,0l5.35-5.33c0,0,0,0,0,0C28.1,15.53,28.1,14.88,27.7,14.48"/>
</svg>
