<?xml version="1.0" encoding="utf-8"?>
<!-- Generator: Adobe Illustrator 23.1.0, SVG Export Plug-In . SVG Version: 6.00 Build 0)  -->
<svg version="1.1" id="Capa_1" xmlns="http://www.w3.org/2000/svg" xmlns:xlink="http://www.w3.org/1999/xlink" x="0px" y="0px"
	 viewBox="0 0 512 512" style="enable-background:new 0 0 512 512;" xml:space="preserve">
<style type="text/css">
	.st0{fill:#FFFFFF;}
</style>
<g>
	<g>
		<g>
			<path class="st0" d="M267.2,244.81V69.21c0-6.19-5.01-11.2-11.2-11.2c-6.18,0-11.2,5.01-11.2,11.2v175.6H69.2
				c-6.19,0-11.2,5.01-11.2,11.2c0,6.18,5.01,11.2,11.2,11.2h175.6v175.6c0,6.19,5.01,11.2,11.2,11.2c3.09,0,5.89-1.25,7.92-3.28
				c2.03-2.03,3.28-4.83,3.28-7.92v-175.6h175.6c3.09,0,5.89-1.25,7.92-3.28c2.03-2.03,3.28-4.83,3.28-7.92
				c0-6.19-5.01-11.2-11.2-11.2L267.2,244.81L267.2,244.81z"/>
		</g>
	</g>
</g>
</svg>
