<?xml version="1.0" encoding="utf-8"?>
<!-- Generator: Adobe Illustrator 23.1.0, SVG Export Plug-In . SVG Version: 6.00 Build 0)  -->
<svg version="1.1" id="圖層_1" xmlns="http://www.w3.org/2000/svg" xmlns:xlink="http://www.w3.org/1999/xlink" x="0px" y="0px"
	 viewBox="0 0 30 30" style="enable-background:new 0 0 30 30;" xml:space="preserve">
<style type="text/css">
	.st0{fill:#FFFFFF;}
</style>
<g>
	<g>
		<path class="st0" d="M24.6,14.4c-0.4,0-0.8,0.4-0.8,0.8v8.5c0,0.4-0.4,0.8-0.8,0.8H7.4c-0.4,0-0.8-0.4-0.8-0.8V6.6
			c0-0.4,0.4-0.8,0.8-0.8h10.3c0.4,0,0.8-0.4,0.8-0.8c0-0.4-0.4-0.8-0.8-0.8H7.4C6,4.2,4.8,5.3,4.8,6.8v17.1c0,1.4,1.1,2.6,2.6,2.6
			h15.5c1.4,0,2.6-1.1,2.6-2.6v-8.5C25.4,14.8,25,14.4,24.6,14.4z"/>
	</g>
</g>
<g>
	<g>
		<path class="st0" d="M26.1,5.1c-0.5-0.4-1.2-0.7-1.9-0.7c-0.7,0-1.4,0.3-1.8,0.8l-8.8,8.8c-0.1,0.1-0.1,0.1-0.1,0.3l-1.4,4.1
			c-0.1,0.4,0.1,0.7,0.4,0.8c0.1,0,0.1,0,0.3,0c0.1,0,0.1,0,0.3,0l4.1-1.4c0.1,0,0.1-0.1,0.3-0.1l8.8-8.8C27,7.8,27,6.2,26.1,5.1z"
			/>
	</g>
</g>
</svg>
