<?xml version="1.0" encoding="utf-8"?>
<!-- Generator: Adobe Illustrator 23.1.0, SVG Export Plug-In . SVG Version: 6.00 Build 0)  -->
<svg version="1.1" id="圖層_1" xmlns="http://www.w3.org/2000/svg" xmlns:xlink="http://www.w3.org/1999/xlink" x="0px" y="0px"
	 viewBox="0 0 30 30" style="enable-background:new 0 0 30 30;" xml:space="preserve">
<style type="text/css">
	.st0{fill:none;stroke:#FFFFFF;stroke-width:2;stroke-miterlimit:10;}
	.st1{fill:#FFFFFF;}
</style>
<g>
	<path class="st0" d="M5.3,20.3v2c0,0.9,0.7,1.6,1.6,1.6H26c0.9,0,1.6-0.8,1.6-1.6V10.7c-0.1-0.9-0.9-1.6-1.8-1.6h-9.1L13.7,7l0,0
		c-0.1-0.1-0.2-0.1-0.4-0.1H5.8c-0.3,0-0.5,0.2-0.5,0.5v3.3v0.5"/>
	<g>
		<g id="reply">
			<path class="st1" d="M17.9,18c-3.6,0.6-6.7-0.5-9.7-3.5l2.5-2.5H2.3v8.4L4.8,18C9.6,21.6,14.3,20.4,17.9,18z"/>
		</g>
	</g>
</g>
</svg>
