<?xml version="1.0" encoding="utf-8"?>
<!-- Generator: Adobe Illustrator 23.1.0, SVG Export Plug-In . SVG Version: 6.00 Build 0)  -->
<svg version="1.1" id="圖層_1" xmlns="http://www.w3.org/2000/svg" xmlns:xlink="http://www.w3.org/1999/xlink" x="0px" y="0px"
	 viewBox="0 0 30 30" style="enable-background:new 0 0 30 30;" xml:space="preserve">
<style type="text/css">
	.st0{fill:#FFFFFF;}
</style>
<g>
	<path class="st0" d="M20.8,9.4c-0.4-0.4-1.1-0.4-1.5,0s-0.4,1.1,0,1.5l3.1,3.1H9.6c-0.6,0-1,0.5-1,1s0.5,1,1,1h12.8l-3.1,3.1
		c-0.4,0.4-0.4,1.1,0,1.5c0.2,0.2,0.5,0.3,0.7,0.3c0.3,0,0.5-0.1,0.7-0.3l4.9-4.9c0.4-0.4,0.4-1.1,0-1.5L20.8,9.4z"/>
	<path class="st0" d="M14.5,26.5c0.6,0,1-0.5,1-1s-0.5-1-1-1h-8V5.6h8c0.6,0,1-0.5,1-1s-0.5-1-1-1H5.4c-0.6,0-1,0.5-1,1v20.9
		c0,0.6,0.5,1,1,1H14.5z"/>
</g>
</svg>
