<?xml version="1.0" encoding="utf-8"?>
<!-- Generator: Adobe Illustrator 23.1.0, SVG Export Plug-In . SVG Version: 6.00 Build 0)  -->
<svg version="1.1" id="圖層_1" xmlns="http://www.w3.org/2000/svg" xmlns:xlink="http://www.w3.org/1999/xlink" x="0px" y="0px"
	 viewBox="0 0 30 30" style="enable-background:new 0 0 30 30;" xml:space="preserve">
<style type="text/css">
	.st0{fill:#FFFFFF;}
</style>
<g>
	<g>
		<path class="st0" d="M24.2,5.9c-2.4-2.4-5.7-3.8-9.1-3.8c-3.5,0-6.7,1.3-9.1,3.8c-2.4,2.4-3.8,5.7-3.8,9.1c0,3.5,1.3,6.7,3.8,9.1
			c2.4,2.4,5.7,3.8,9.1,3.8c3.5,0,6.7-1.3,9.1-3.8c2.4-2.4,3.8-5.7,3.8-9.1S26.7,8.4,24.2,5.9z M22.4,15.7l-9.7,6.5
			c-0.1,0.1-0.3,0.1-0.4,0.1c-0.1,0-0.2,0-0.4-0.1c-0.2-0.1-0.4-0.4-0.4-0.7v-13c0-0.3,0.2-0.5,0.4-0.7c0.2-0.1,0.5-0.1,0.8,0
			l9.7,6.5c0.2,0.1,0.3,0.4,0.3,0.6C22.7,15.3,22.6,15.6,22.4,15.7z"/>
	</g>
</g>
</svg>
