<?xml version="1.0" encoding="utf-8"?>
<!-- Generator: Adobe Illustrator 23.1.0, SVG Export Plug-In . SVG Version: 6.00 Build 0)  -->
<svg version="1.1" id="圖層_1" xmlns="http://www.w3.org/2000/svg" xmlns:xlink="http://www.w3.org/1999/xlink" x="0px" y="0px"
	 viewBox="0 0 30 30" style="enable-background:new 0 0 30 30;" xml:space="preserve">
<style type="text/css">
	.st0{fill:#FFFFFF;}
</style>
<g>
	<path class="st0" d="M12.9,4.7h3.9v0.7h1.4V4.6c0-0.8-0.6-1.3-1.3-1.3h-4.1c-0.7,0.1-1.2,0.7-1.2,1.3v0.8H13V4.7H12.9z"/>
	<path class="st0" d="M21.5,11H8.2c-0.3,0-0.7,0.3-0.7,0.7l1.1,13.7c0.1,0.8,0.7,1.3,1.4,1.3h9.3c0.8,0,1.4-0.6,1.4-1.3L22,11.7
		C22.2,11.2,21.8,11,21.5,11z M11.4,25.2L11.4,25.2c-0.4,0-0.8-0.3-0.8-0.7L10,13.3c0-0.4,0.2-0.8,0.7-0.8c0.3,0,0.8,0.2,0.8,0.7
		l0.7,11.2C12.1,24.9,11.9,25.2,11.4,25.2z M15.5,24.5c0,0.4-0.3,0.7-0.7,0.7c-0.3,0-0.7-0.3-0.7-0.7V13.3c0-0.4,0.3-0.7,0.7-0.7
		c0.4,0,0.7,0.3,0.7,0.7V24.5z M19.7,13.3l-0.7,11.2c0,0.3-0.3,0.7-0.7,0.7l0,0c-0.4,0-0.7-0.3-0.7-0.8l0.7-11.2
		c0-0.4,0.3-0.7,0.8-0.7C19.4,12.6,19.7,12.9,19.7,13.3z"/>
	<path class="st0" d="M23.9,8.8l-0.4-1.4c-0.1-0.3-0.4-0.7-0.9-0.7H7.1c-0.3,0-0.8,0.2-0.9,0.7L5.8,8.8C5.7,9,5.8,9.4,6,9.5
		c0.1,0.1,0.2,0.1,0.3,0.1h17c0.1,0,0.2,0,0.3-0.1C23.9,9.4,24.1,9,23.9,8.8z"/>
</g>
</svg>
