<?xml version="1.0" encoding="utf-8"?>
<!-- Generator: Adobe Illustrator 23.1.0, SVG Export Plug-In . SVG Version: 6.00 Build 0)  -->
<svg version="1.1" id="圖層_1" xmlns="http://www.w3.org/2000/svg" xmlns:xlink="http://www.w3.org/1999/xlink" x="0px" y="0px"
	 viewBox="0 0 30 30" style="enable-background:new 0 0 30 30;" xml:space="preserve">
<style type="text/css">
	.st0{fill:#FFFFFF;}
	.st1{fill:#474747;}
</style>
<g>
	<g>
		<path class="st0" d="M24.6,14.4c-0.4,0-0.8,0.4-0.8,0.8v8.5c0,0.4-0.4,0.8-0.8,0.8H7.4c-0.4,0-0.8-0.4-0.8-0.8V6.6
			c0-0.4,0.4-0.8,0.8-0.8h10.3c0.4,0,0.8-0.4,0.8-0.8s-0.4-0.8-0.8-0.8H7.4C6,4.2,4.8,5.3,4.8,6.8v17.1c0,1.4,1.1,2.6,2.6,2.6h15.5
			c1.4,0,2.6-1.1,2.6-2.6v-8.5C25.4,14.8,25,14.4,24.6,14.4z"/>
	</g>
</g>
<polyline class="st1" points="22.7,13.7 15.1,21.3 7.6,13.7 "/>
</svg>
